<?xml version="1.0" standalone="no"?>
<!DOCTYPE svg PUBLIC "-//W3C//DTD SVG 20010904//EN"
 "http://www.w3.org/TR/2001/REC-SVG-20010904/DTD/svg10.dtd">
<svg version="1.0" xmlns="http://www.w3.org/2000/svg"
 width="512.000000pt" height="512.000000pt" viewBox="0 0 512.000000 512.000000"
 preserveAspectRatio="xMidYMid meet">
<metadata>
Created by potrace 1.11, written by Peter Selinger 2001-2013
</metadata>
<g transform="translate(0.000000,512.000000) scale(0.100000,-0.100000)"
fill="#000000" stroke="none">
<path d="M2340 5079 c-58 -10 -123 -23 -145 -29 -22 -6 -49 -13 -60 -16 -34
-9 -39 -11 -70 -23 -16 -7 -38 -14 -49 -17 -10 -2 -23 -8 -30 -13 -6 -5 -14
-10 -19 -10 -4 0 -20 -7 -36 -15 -16 -9 -31 -12 -35 -9 -3 4 -6 1 -6 -5 0 -6
-16 -16 -35 -23 -19 -7 -35 -16 -35 -19 0 -4 -16 -12 -35 -20 -19 -8 -35 -17
-35 -20 0 -4 -11 -12 -25 -18 -14 -6 -54 -34 -90 -62 -36 -28 -65 -48 -65 -45
0 4 -7 0 -15 -9 -8 -8 -15 -19 -15 -25 0 -6 -5 -11 -10 -11 -15 0 -180 -172
-180 -187 0 -7 -4 -13 -10 -13 -5 0 -24 -21 -41 -47 -18 -27 -36 -49 -41 -51
-4 -2 -8 -7 -8 -12 0 -4 -20 -41 -45 -81 -25 -40 -45 -79 -45 -86 0 -7 -4 -13
-10 -13 -5 0 -10 -6 -10 -14 0 -8 -7 -27 -14 -43 -13 -24 -21 -43 -31 -73 -1
-3 -7 -18 -14 -35 -19 -45 -62 -207 -60 -222 1 -5 0 -11 -1 -15 -1 -5 -4 -17
-5 -28 -1 -11 -4 -21 -5 -22 -9 -11 -14 -143 -6 -156 3 -6 2 -13 -3 -16 -5 -4
-7 -25 -5 -49 5 -40 5 -50 3 -79 -1 -17 18 -171 22 -175 1 -2 3 -12 4 -23 1
-11 3 -21 5 -22 2 -4 8 -32 16 -80 3 -21 11 -38 17 -38 6 0 8 -3 4 -6 -3 -3 3
-29 15 -58 11 -28 21 -55 22 -61 10 -47 205 -383 229 -393 4 -2 7 -10 7 -18 0
-8 7 -17 15 -20 8 -4 15 -10 15 -15 0 -12 86 -146 113 -176 11 -13 18 -23 14
-23 -4 0 7 -21 23 -47 17 -26 30 -53 30 -60 0 -7 5 -13 12 -13 6 0 8 -3 5 -7
-4 -3 -3 -11 2 -17 12 -16 65 -153 77 -201 34 -137 49 -259 59 -498 3 -55 0
-69 -13 -76 -10 -4 -22 -6 -29 -4 -15 6 -93 -74 -94 -98 -1 -10 -2 -29 -3 -41
-5 -50 54 -127 101 -134 39 -6 40 -9 39 -149 l-1 -137 -40 -13 c-47 -16 -94
-68 -96 -105 -1 -14 -2 -32 -3 -40 -1 -8 3 -21 8 -27 4 -7 5 -13 2 -13 -4 0 2
-14 14 -30 28 -40 71 -61 117 -58 23 1 38 -2 41 -11 7 -21 84 -90 119 -106 17
-9 53 -19 79 -24 35 -7 56 -19 84 -48 20 -22 54 -52 76 -69 21 -16 41 -31 44
-34 32 -32 288 -141 273 -117 -4 7 1 6 11 -2 25 -20 247 -20 281 1 6 3 25 9
43 13 17 3 32 11 32 17 0 6 3 8 7 5 3 -4 17 0 30 8 13 9 23 12 23 9 0 -4 9 1
20 11 11 10 20 15 20 11 0 -7 67 34 115 71 44 34 115 105 115 115 0 4 3 7 8 6
6 -2 88 12 102 17 68 25 124 79 157 152 21 45 25 70 26 154 l1 100 27 6 c16 3
44 19 64 37 46 40 63 119 35 163 -28 45 -65 73 -97 76 l-31 2 2 145 c1 121 4
145 16 146 67 3 122 66 122 141 0 26 -5 49 -11 51 -6 2 -9 7 -6 11 7 13 -47
58 -85 70 -39 12 -39 13 -25 111 10 71 18 117 30 160 15 53 23 76 47 135 48
118 71 165 80 165 4 0 8 9 8 20 0 10 8 24 18 29 9 6 13 11 9 11 -9 0 30 60 46
71 5 3 8 8 6 10 -1 2 11 24 27 48 16 24 33 52 39 62 5 11 13 19 17 19 5 0 8 7
8 15 0 8 5 15 10 15 6 0 10 7 10 15 0 8 5 15 10 15 6 0 10 6 10 14 0 8 4 16 8
18 8 2 65 89 109 163 48 81 131 266 134 300 0 6 5 15 11 22 5 7 7 17 4 22 -4
5 -2 12 3 15 5 3 12 20 15 38 3 18 9 44 11 58 20 89 37 330 23 330 -4 0 -3 11
2 24 5 13 7 26 4 28 -2 3 -6 32 -9 64 -3 32 -7 70 -10 84 -3 14 -8 41 -11 60
-7 41 -12 63 -14 70 -1 3 -2 8 -1 13 0 4 -3 7 -9 7 -5 0 -7 7 -4 15 4 8 1 21
-5 29 -6 7 -8 16 -4 19 3 4 0 13 -7 22 -7 8 -9 15 -5 15 4 0 2 7 -5 15 -7 8
-9 15 -6 15 4 0 0 10 -8 22 -9 12 -16 33 -16 45 0 13 -4 23 -9 23 -7 0 -24 42
-18 46 1 1 -5 10 -14 20 -9 11 -21 34 -29 52 -7 17 -16 32 -21 32 -5 0 -9 9
-9 20 0 11 -4 20 -8 20 -5 0 -15 12 -23 28 -13 25 -55 84 -117 162 -37 46
-213 220 -223 220 -5 0 -24 15 -43 33 -18 18 -39 31 -46 29 -8 -3 -10 0 -6 7
4 6 3 11 -3 11 -6 0 -35 16 -66 35 -74 48 -145 85 -161 85 -8 0 -14 5 -14 10
0 6 -3 9 -7 8 -5 -1 -21 4 -38 11 -54 24 -70 30 -116 45 -70 23 -170 48 -209
52 -19 2 -46 7 -60 10 -59 15 -326 10 -430 -7z"/>
</g>
</svg>
